<svg width="174" height="34" viewBox="0 0 174 34" fill="none" xmlns="http://www.w3.org/2000/svg">
<path d="M31.144 24.314H31.5897V22.3798C31.5897 20.5008 30.0298 18.9534 28.1355 18.9534C26.6312 18.9534 25.2941 17.8482 25.0712 16.4113C24.9041 15.5271 25.1827 14.6429 25.7398 13.9245C26.2969 13.2613 27.1883 12.8745 28.0798 12.8745C30.0298 12.8745 31.5897 11.3271 31.5897 9.39288V7.45866H31.144C28.1912 7.45866 25.6284 5.5797 24.6812 2.8718H18.8313V9.22709C18.8313 10.7192 17.717 12.0455 16.2684 12.2666C16.0456 12.3218 15.8227 12.3218 15.6556 12.3218C14.0399 12.2113 12.7585 10.885 12.7585 9.28235V2.8718H6.90852C5.96138 5.5797 3.39855 7.45866 0.445712 7.45866H0V9.39288C0 11.2718 1.55999 12.8192 3.45426 12.8192C4.95853 12.8192 6.29566 13.9245 6.51852 15.3613C6.68566 16.2455 6.40709 17.1297 5.84995 17.8482C5.29281 18.5113 4.40139 18.8982 3.50997 18.8982C1.55999 18.8982 0 20.4456 0 22.3245V24.2587H0.445712C3.39855 24.2587 5.96138 26.1377 6.90852 28.8456H12.7585V22.4903C12.7585 20.9982 13.8727 19.6719 15.3213 19.4508C15.4884 19.3955 15.7113 19.3956 15.8784 19.3956C17.5499 19.5061 18.8313 20.8324 18.8313 22.435V28.8456H24.6812C25.5727 26.1929 28.1912 24.314 31.144 24.314Z" fill="white"/>
<path d="M37.4396 26V7.17298H40.6216L46.6409 23.5074L52.6338 7.17298H55.8158V26H53.5353V11.4157L48.1524 26H45.1029L39.72 11.4157V26H37.4396ZM65.6055 26.3182C64.315 26.3182 63.1836 26.0177 62.2113 25.4166C61.239 24.8156 60.4877 23.967 59.9574 22.871C59.4271 21.7573 59.1619 20.458 59.1619 18.973C59.1619 17.4704 59.4271 16.1711 59.9574 15.075C60.4877 13.979 61.239 13.1305 62.2113 12.5294C63.1836 11.9284 64.315 11.6278 65.6055 11.6278C66.896 11.6278 68.0185 11.9284 68.9732 12.5294C69.9454 13.1305 70.6967 13.979 71.2271 15.075C71.7574 16.1711 72.0226 17.4704 72.0226 18.973C72.0226 20.458 71.7574 21.7573 71.2271 22.871C70.6967 23.967 69.9454 24.8156 68.9732 25.4166C68.0185 26.0177 66.896 26.3182 65.6055 26.3182ZM65.6055 24.1968C66.896 24.1968 67.8948 23.7372 68.6019 22.818C69.3267 21.881 69.6891 20.5994 69.6891 18.973C69.6891 17.3466 69.3267 16.0738 68.6019 15.1546C67.8948 14.2176 66.896 13.7492 65.6055 13.7492C64.315 13.7492 63.3074 14.2176 62.5826 15.1546C61.8578 16.0738 61.4954 17.3466 61.4954 18.973C61.4954 20.5994 61.8578 21.881 62.5826 22.818C63.3074 23.7372 64.315 24.1968 65.6055 24.1968ZM75.0582 26V11.946H77.1L77.1795 15.4993L76.8613 15.3932C77.0204 14.6154 77.2944 13.9525 77.6833 13.4045C78.0899 12.8388 78.5849 12.4057 79.1683 12.1051C79.7517 11.7869 80.3969 11.6278 81.104 11.6278C82.3238 11.6278 83.3138 11.9637 84.0739 12.6355C84.8517 13.3072 85.3379 14.2442 85.5323 15.4463L85.1081 15.4197C85.2495 14.6066 85.5058 13.926 85.8771 13.3779C86.266 12.8123 86.761 12.3791 87.362 12.0786C87.9631 11.7781 88.6525 11.6278 89.4303 11.6278C90.438 11.6278 91.2865 11.84 91.976 12.2642C92.6654 12.6708 93.1869 13.2719 93.5405 14.0674C93.894 14.8629 94.0708 15.8263 94.0708 16.9577V26H91.8434V17.435C91.8434 16.1622 91.5959 15.2076 91.1009 14.5712C90.6059 13.9171 89.8723 13.5901 88.9 13.5901C88.2459 13.5901 87.6714 13.7492 87.1764 14.0674C86.6991 14.3856 86.3279 14.8452 86.0627 15.4463C85.7975 16.0296 85.6649 16.7456 85.6649 17.5941V26H83.4375V17.5941C83.4375 16.339 83.2165 15.3579 82.7746 14.6508C82.3326 13.9436 81.5902 13.5901 80.5472 13.5901C79.8931 13.5901 79.3185 13.7492 78.8236 14.0674C78.3463 14.3856 77.9662 14.8452 77.6833 15.4463C77.4182 16.0473 77.2856 16.7633 77.2856 17.5941V26H75.0582ZM103.491 26.3182C102.165 26.3182 101.016 26.0177 100.043 25.4166C99.0887 24.8156 98.3462 23.967 97.8159 22.871C97.3032 21.7573 97.0469 20.458 97.0469 18.973C97.0469 17.4881 97.3032 16.1976 97.8159 15.1015C98.3462 14.0055 99.0799 13.157 100.017 12.5559C100.971 11.9372 102.094 11.6278 103.384 11.6278C104.604 11.6278 105.683 11.9195 106.62 12.5029C107.556 13.0686 108.281 13.8994 108.794 14.9955C109.324 16.0915 109.589 17.4262 109.589 18.9995V19.6625H99.3804C99.4688 21.1651 99.8665 22.2965 100.574 23.0566C101.298 23.8168 102.271 24.1968 103.491 24.1968C104.41 24.1968 105.161 23.9847 105.744 23.5604C106.346 23.1185 106.761 22.544 106.991 21.8368L109.377 22.0225C109.006 23.2776 108.299 24.3118 107.256 25.1249C106.231 25.9204 104.975 26.3182 103.491 26.3182ZM99.3804 17.7002H107.15C107.044 16.339 106.646 15.3402 105.957 14.7038C105.285 14.0674 104.427 13.7492 103.384 13.7492C102.306 13.7492 101.413 14.0851 100.706 14.7568C100.017 15.4109 99.5748 16.392 99.3804 17.7002ZM112.607 26V11.946H114.648L114.728 15.5258L114.463 15.2872C114.64 14.4563 114.949 13.7757 115.391 13.2454C115.833 12.6973 116.363 12.2908 116.982 12.0256C117.618 11.7604 118.299 11.6278 119.024 11.6278C120.102 11.6278 120.986 11.8665 121.675 12.3438C122.382 12.8211 122.904 13.4663 123.24 14.2795C123.593 15.075 123.77 15.9678 123.77 16.9577V26H121.543V17.5941C121.543 16.7279 121.437 16.0031 121.225 15.4197C121.03 14.8187 120.712 14.3679 120.27 14.0674C119.828 13.7492 119.253 13.5901 118.546 13.5901C117.468 13.5901 116.575 13.9348 115.868 14.6242C115.179 15.296 114.834 16.286 114.834 17.5941V26H112.607ZM132.097 26C130.824 26 129.878 25.7083 129.26 25.1249C128.659 24.5416 128.358 23.6312 128.358 22.3937V8.65793H130.585V22.3407C130.585 22.9771 130.727 23.419 131.01 23.6665C131.293 23.914 131.726 24.0377 132.309 24.0377H134.324V26H132.097ZM126.29 13.9083V11.946H134.324V13.9083H126.29ZM141.795 26.3182C140.399 26.3182 139.276 25.8497 138.428 24.9128C137.597 23.9582 137.181 22.65 137.181 20.9883V11.946H139.409V20.3784C139.409 21.7396 139.647 22.7473 140.125 23.4013C140.62 24.0377 141.371 24.356 142.379 24.356C143.492 24.356 144.367 24.0024 145.004 23.2953C145.64 22.5705 145.958 21.5805 145.958 20.3254V11.946H148.186V26H146.064V22.5263L146.409 22.7119C146.126 23.861 145.587 24.7537 144.792 25.3901C143.996 26.0088 142.997 26.3182 141.795 26.3182ZM152.434 26V11.946H154.476L154.555 15.4993L154.237 15.3932C154.396 14.6154 154.67 13.9525 155.059 13.4045C155.465 12.8388 155.96 12.4057 156.544 12.1051C157.127 11.7869 157.772 11.6278 158.48 11.6278C159.699 11.6278 160.689 11.9637 161.449 12.6355C162.227 13.3072 162.713 14.2442 162.908 15.4463L162.484 15.4197C162.625 14.6066 162.881 13.926 163.253 13.3779C163.642 12.8123 164.137 12.3791 164.738 12.0786C165.339 11.7781 166.028 11.6278 166.806 11.6278C167.814 11.6278 168.662 11.84 169.352 12.2642C170.041 12.6708 170.562 13.2719 170.916 14.0674C171.27 14.8629 171.446 15.8263 171.446 16.9577V26H169.219V17.435C169.219 16.1622 168.971 15.2076 168.476 14.5712C167.981 13.9171 167.248 13.5901 166.276 13.5901C165.621 13.5901 165.047 13.7492 164.552 14.0674C164.075 14.3856 163.703 14.8452 163.438 15.4463C163.173 16.0296 163.04 16.7456 163.04 17.5941V26H160.813V17.5941C160.813 16.339 160.592 15.3579 160.15 14.6508C159.708 13.9436 158.966 13.5901 157.923 13.5901C157.269 13.5901 156.694 13.7492 156.199 14.0674C155.722 14.3856 155.342 14.8452 155.059 15.4463C154.794 16.0473 154.661 16.7633 154.661 17.5941V26H152.434Z" fill="white"/>
</svg>
